<?xml version="1.0" standalone="no"?><!DOCTYPE svg PUBLIC "-//W3C//DTD SVG 1.1//EN" "http://www.w3.org/Graphics/SVG/1.1/DTD/svg11.dtd"><svg t="1669115968875" class="icon" viewBox="0 0 1024 1024" version="1.1" xmlns="http://www.w3.org/2000/svg" p-id="2842" xmlns:xlink="http://www.w3.org/1999/xlink" width="200" height="200"><path d="M272.4 813.1c-1.4 0-2.7-0.1-4.1-0.3-13.1-2.3-21.9-14.7-19.6-27.7l4.5-26.2c2.2-13.1 14.7-21.8 27.7-19.6 13.1 2.3 21.9 14.7 19.6 27.7l-4.5 26.2c-2 11.7-12.1 19.9-23.6 19.9z" fill="#3778FF" p-id="2843"></path><path d="M885 434.7l-244.8-35.6c-7.8-1.1-14.6-6.1-18.1-13.1l-74.8-151.6-69.6 141-74.7 10.8c-3.5 7-10.2 11.8-18 12.9l-191.2 27.8 202.8 197.7L361.3 831l140.1-73.7c7-3.7 15.4-3.7 22.4 0l62.7 33 22.2-11.7 129.7 68.2L701 628.7c-1.3-7.8 1.3-15.8 6.9-21.3L885 434.7z" fill="#91B4FF" p-id="2844"></path><path d="M774.1 940.4c-3.8 0-7.7-0.9-11.2-2.8L512 805.8 261.1 937.7c-8.1 4.3-17.9 3.5-25.3-1.8-7.4-5.4-11.1-14.5-9.6-23.5l11.5-67.2c2.2-13.1 14.8-21.9 27.7-19.6 13.1 2.3 21.9 14.7 19.6 27.7l-3.3 19.2 219-115.1c7-3.7 15.4-3.7 22.4 0l219 115.1-41.8-243.8c-1.3-7.8 1.3-15.8 6.9-21.3l177.2-172.7-244.8-35.6c-7.8-1.1-14.6-6.1-18.1-13.1L512 164.1 402.6 386c-3.5 7.1-10.3 12-18.1 13.1l-244.8 35.6 177.2 172.7c5.7 5.5 8.3 13.5 6.9 21.3L311.7 699c-2.3 13.1-14.6 21.9-27.7 19.6-13.1-2.2-21.9-14.7-19.6-27.7l9.9-57.8-203-197.8c-6.6-6.4-8.9-15.9-6.1-24.6 2.8-8.7 10.3-15 19.4-16.3l280.5-40.8L490.5 99.2c4.1-8.2 12.4-13.4 21.5-13.4s17.5 5.2 21.5 13.4L659 353.4l280.5 40.8c9 1.3 16.6 7.6 19.4 16.3 2.8 8.7 0.5 18.3-6.1 24.6L749.9 633l47.9 279.4c1.5 9-2.2 18.1-9.6 23.5-4.1 3-9.1 4.5-14.1 4.5z" fill="#3778FF" p-id="2845"></path></svg>