<?xml version="1.0" standalone="no"?><!DOCTYPE svg PUBLIC "-//W3C//DTD SVG 1.1//EN" "http://www.w3.org/Graphics/SVG/1.1/DTD/svg11.dtd"><svg t="1669289682766" class="icon" viewBox="0 0 1024 1024" version="1.1" xmlns="http://www.w3.org/2000/svg" p-id="1549" xmlns:xlink="http://www.w3.org/1999/xlink" width="200" height="200"><path d="M915.87 356.8m0 109.03l0 299.9q0 109.03-109.03 109.03l-215.61 0q-109.03 0-109.03-109.03l0-299.9q0-109.03 109.03-109.03l215.61 0q109.03 0 109.03 109.03Z" fill="#E9F1FF" p-id="1550"></path><path d="M823 896H197.5C136.54 896 87 848.7 87 790.57V233.43C87 175.3 136.54 128 197.5 128h471.08c61 0 110.56 47.3 110.56 105.43V349a32 32 0 0 1-64 0V233.42c0-10.57-4.6-20.69-12.93-28.48A49 49 0 0 0 668.58 192H197.5a48.92 48.92 0 0 0-33.62 13c-8.34 7.79-12.93 17.9-12.93 28.48v557.09c0 10.58 4.59 20.69 12.93 28.48a48.92 48.92 0 0 0 33.62 13H823a32 32 0 0 1 0 64z" fill="#2C5CCB" p-id="1551"></path><path d="M827.24 896a112.23 112.23 0 0 1-112.1-112.1V314a32 32 0 0 1 32-32h160.2a32 32 0 0 1 32 32v469.9A112.23 112.23 0 0 1 827.24 896z m-48.1-550v437.9a48.1 48.1 0 1 0 96.2 0V346zM389.41 628H277.57a72.16 72.16 0 0 1-72.08-72.08V316.08A72.16 72.16 0 0 1 277.57 244h111.84a72.16 72.16 0 0 1 72.08 72.08v239.84A72.17 72.17 0 0 1 389.41 628zM277.57 308a8.19 8.19 0 0 0-8.08 8.08v239.84a8.19 8.19 0 0 0 8.08 8.08h111.84a8.19 8.19 0 0 0 8.08-8.08V316.08a8.19 8.19 0 0 0-8.08-8.08zM637.52 755.88H236a32 32 0 1 1 0-64h401.52a32 32 0 0 1 0 64zM637.52 344H528.45a32 32 0 0 1 0-64h109.07a32 32 0 0 1 0 64zM637.52 550H528.45a32 32 0 0 1 0-64h109.07a32 32 0 0 1 0 64z" fill="#2C5CCB" p-id="1552"></path></svg>